{
	"asset":{
		"generator":"Khronos glTF Blender I/O v4.2.60",
		"version":"2.0"
	},
	"extensionsUsed":[
		"KHR_materials_specular"
	],
	"scene":0,
	"scenes":[
		{
			"name":"Scene",
			"nodes":[
				1,
				2
			]
		}
	],
	"nodes":[
		{
			"name":"d03edfa6d24446bd8e8c238e33ec61ca.obj.cleaner.materialmerger.gle"
		},
		{
			"children":[
				0
			],
			"name":"Sketchfab_model",
			"rotation":[
				-0.70710688829422,
				0,
				0,
				0.7071066498756409
			]
		},
		{
			"mesh":0,
			"name":"Unit Assembly v9",
			"scale":[
				0.10000000149011612,
				0.10000000149011612,
				0.10000000149011612
			],
			"translation":[
				-1.729768991470337,
				0.09265947341918945,
				2.7522573471069336
			]
		}
	],
	"materials":[
		{
			"doubleSided":true,
			"extensions":{
				"KHR_materials_specular":{
					"specularFactor":0
				}
			},
			"name":"Steel_-_Satin",
			"pbrMetallicRoughness":{
				"baseColorFactor":[
					0.6274510025978088,
					0.6274510025978088,
					0.6274510025978088,
					1
				],
				"metallicFactor":0
			}
		},
		{
			"doubleSided":true,
			"extensions":{
				"KHR_materials_specular":{
					"specularFactor":0
				}
			},
			"name":"ABS_(White)",
			"pbrMetallicRoughness":{
				"baseColorFactor":[
					0.9647060036659241,
					0.9647060036659241,
					0.9529410004615784,
					1
				],
				"metallicFactor":0
			}
		},
		{
			"doubleSided":true,
			"extensions":{
				"KHR_materials_specular":{
					"specularFactor":0
				}
			},
			"name":"ABS_(White)_1",
			"pbrMetallicRoughness":{
				"baseColorFactor":[
					0.9647060036659241,
					0.9647060036659241,
					0.9529410004615784,
					1
				],
				"metallicFactor":0
			}
		},
		{
			"doubleSided":true,
			"extensions":{
				"KHR_materials_specular":{
					"specularFactor":0
				}
			},
			"name":"Glass_-_Light_Color_(Blue)",
			"pbrMetallicRoughness":{
				"baseColorFactor":[
					0.4235289990901947,
					0.7686269879341125,
					0.8549020290374756,
					1
				],
				"metallicFactor":0
			}
		},
		{
			"doubleSided":true,
			"extensions":{
				"KHR_materials_specular":{
					"specularFactor":0
				}
			},
			"name":"FR4",
			"pbrMetallicRoughness":{
				"baseColorFactor":[
					0.2666670083999634,
					0.4666669964790344,
					0.4000000059604645,
					1
				],
				"metallicFactor":0
			}
		}
	],
	"meshes":[
		{
			"name":"Unit Assembly v9",
			"primitives":[
				{
					"attributes":{
						"POSITION":0,
						"NORMAL":1,
						"TEXCOORD_0":2
					},
					"indices":3,
					"material":0
				},
				{
					"attributes":{
						"POSITION":4,
						"NORMAL":5,
						"TEXCOORD_0":6
					},
					"indices":7,
					"material":1
				},
				{
					"attributes":{
						"POSITION":8,
						"NORMAL":9,
						"TEXCOORD_0":10
					},
					"indices":11,
					"material":2
				},
				{
					"attributes":{
						"POSITION":12,
						"NORMAL":13,
						"TEXCOORD_0":14
					},
					"indices":15,
					"material":3
				},
				{
					"attributes":{
						"POSITION":16,
						"NORMAL":17,
						"TEXCOORD_0":18
					},
					"indices":19,
					"material":4
				}
			]
		}
	],
	"accessors":[
		{
			"bufferView":0,
			"componentType":5126,
			"count":1766379,
			"max":[
				120,
				189,
				2
			],
			"min":[
				-2,
				-3.999999989900971e-06,
				-85
			],
			"type":"VEC3"
		},
		{
			"bufferView":1,
			"componentType":5126,
			"count":1766379,
			"type":"VEC3"
		},
		{
			"bufferView":2,
			"componentType":5126,
			"count":1766379,
			"type":"VEC2"
		},
		{
			"bufferView":3,
			"componentType":5125,
			"count":6974862,
			"type":"SCALAR"
		},
		{
			"bufferView":4,
			"componentType":5126,
			"count":34862,
			"max":[
				119.44999694824219,
				149,
				-2
			],
			"min":[
				2.200000047683716,
				18.599998474121094,
				-77.5
			],
			"type":"VEC3"
		},
		{
			"bufferView":5,
			"componentType":5126,
			"count":34862,
			"type":"VEC3"
		},
		{
			"bufferView":6,
			"componentType":5126,
			"count":34862,
			"type":"VEC2"
		},
		{
			"bufferView":7,
			"componentType":5123,
			"count":89730,
			"type":"SCALAR"
		},
		{
			"bufferView":8,
			"componentType":5126,
			"count":74058,
			"max":[
				110.75,
				150.4499969482422,
				-11.850000381469727
			],
			"min":[
				3.700000047683716,
				52.20000076293945,
				-75.8499984741211
			],
			"type":"VEC3"
		},
		{
			"bufferView":9,
			"componentType":5126,
			"count":74058,
			"type":"VEC3"
		},
		{
			"bufferView":10,
			"componentType":5126,
			"count":74058,
			"type":"VEC2"
		},
		{
			"bufferView":11,
			"componentType":5125,
			"count":176580,
			"type":"SCALAR"
		},
		{
			"bufferView":12,
			"componentType":5126,
			"count":13117,
			"max":[
				104.05000305175781,
				184.89999389648438,
				-15.75
			],
			"min":[
				13.949999809265137,
				49.900001525878906,
				-71.94999694824219
			],
			"type":"VEC3"
		},
		{
			"bufferView":13,
			"componentType":5126,
			"count":13117,
			"type":"VEC3"
		},
		{
			"bufferView":14,
			"componentType":5126,
			"count":13117,
			"type":"VEC2"
		},
		{
			"bufferView":15,
			"componentType":5123,
			"count":44040,
			"type":"SCALAR"
		},
		{
			"bufferView":16,
			"componentType":5126,
			"count":280,
			"max":[
				10.350000381469727,
				150.35000610351562,
				-68.0999984741211
			],
			"min":[
				8.350000381469727,
				146.85000610351562,
				-72.80000305175781
			],
			"type":"VEC3"
		},
		{
			"bufferView":17,
			"componentType":5126,
			"count":280,
			"type":"VEC3"
		},
		{
			"bufferView":18,
			"componentType":5126,
			"count":280,
			"type":"VEC2"
		},
		{
			"bufferView":19,
			"componentType":5123,
			"count":600,
			"type":"SCALAR"
		}
	],
	"bufferViews":[
		{
			"buffer":0,
			"byteLength":21196548,
			"byteOffset":0,
			"target":34962
		},
		{
			"buffer":0,
			"byteLength":21196548,
			"byteOffset":21196548,
			"target":34962
		},
		{
			"buffer":0,
			"byteLength":14131032,
			"byteOffset":42393096,
			"target":34962
		},
		{
			"buffer":0,
			"byteLength":27899448,
			"byteOffset":56524128,
			"target":34963
		},
		{
			"buffer":0,
			"byteLength":418344,
			"byteOffset":84423576,
			"target":34962
		},
		{
			"buffer":0,
			"byteLength":418344,
			"byteOffset":84841920,
			"target":34962
		},
		{
			"buffer":0,
			"byteLength":278896,
			"byteOffset":85260264,
			"target":34962
		},
		{
			"buffer":0,
			"byteLength":179460,
			"byteOffset":85539160,
			"target":34963
		},
		{
			"buffer":0,
			"byteLength":888696,
			"byteOffset":85718620,
			"target":34962
		},
		{
			"buffer":0,
			"byteLength":888696,
			"byteOffset":86607316,
			"target":34962
		},
		{
			"buffer":0,
			"byteLength":592464,
			"byteOffset":87496012,
			"target":34962
		},
		{
			"buffer":0,
			"byteLength":706320,
			"byteOffset":88088476,
			"target":34963
		},
		{
			"buffer":0,
			"byteLength":157404,
			"byteOffset":88794796,
			"target":34962
		},
		{
			"buffer":0,
			"byteLength":157404,
			"byteOffset":88952200,
			"target":34962
		},
		{
			"buffer":0,
			"byteLength":104936,
			"byteOffset":89109604,
			"target":34962
		},
		{
			"buffer":0,
			"byteLength":88080,
			"byteOffset":89214540,
			"target":34963
		},
		{
			"buffer":0,
			"byteLength":3360,
			"byteOffset":89302620,
			"target":34962
		},
		{
			"buffer":0,
			"byteLength":3360,
			"byteOffset":89305980,
			"target":34962
		},
		{
			"buffer":0,
			"byteLength":2240,
			"byteOffset":89309340,
			"target":34962
		},
		{
			"buffer":0,
			"byteLength":1200,
			"byteOffset":89311580,
			"target":34963
		}
	],
	"buffers":[
		{
			"byteLength":89312780,
			"uri":"growracks.bin"
		}
	]
}
